<?xml version="1.0" encoding="UTF-8" standalone="no"?>
<!-- Created with Inkscape (http://www.inkscape.org/) -->

<svg
   width="36"
   height="36"
   viewBox="0 0 9.5249998 9.5249999"
   version="1.1"
   id="svg1"
   xml:space="preserve"
   inkscape:version="1.3 (0e150ed6c4, 2023-07-21)"
   sodipodi:docname="circle.svg"
   xmlns:inkscape="http://www.inkscape.org/namespaces/inkscape"
   xmlns:sodipodi="http://sodipodi.sourceforge.net/DTD/sodipodi-0.dtd"
   xmlns="http://www.w3.org/2000/svg"
   xmlns:svg="http://www.w3.org/2000/svg"><sodipodi:namedview
     id="namedview1"
     pagecolor="#000000"
     bordercolor="#000000"
     borderopacity="0.25"
     inkscape:showpageshadow="2"
     inkscape:pageopacity="0.0"
     inkscape:pagecheckerboard="true"
     inkscape:deskcolor="#d1d1d1"
     inkscape:document-units="mm"
     inkscape:zoom="15.319853"
     inkscape:cx="15.665946"
     inkscape:cy="21.475401"
     inkscape:window-width="1920"
     inkscape:window-height="1006"
     inkscape:window-x="768"
     inkscape:window-y="0"
     inkscape:window-maximized="1"
     inkscape:current-layer="layer1" /><defs
     id="defs1" /><g
     inkscape:label="Layer 1"
     inkscape:groupmode="layer"
     id="layer1"><path
       id="path1"
       d="M 9.5250315,4.7625156 A 4.7625041,4.762501 0 0 0 2.0308608,0.86131293 L 2.4861561,1.5115002 A 3.9687534,3.9687508 0 0 1 8.7312807,4.7625156 H 9.5250315 M 1.3949342,1.3949247 A 4.7625041,4.762501 0 1 0 9.402979,5.8338402 L 8.6295748,5.6552992 A 3.9687534,3.9687508 0 1 1 1.9561953,1.9561855 L 1.3949342,1.3949247 M 1.8521081,4.7625156 A 2.9104192,2.9104173 0 0 0 6.4318645,7.1465971 L 6.1283606,6.7131302 A 2.3812521,2.3812505 0 0 1 2.3812753,4.7625156 H 1.8521081 M 6.8205112,6.820498 A 2.9104192,2.9104173 0 1 0 1.915714,4.1574133 L 2.4333188,4.2674271 A 2.3812521,2.3812505 0 1 1 6.4463371,6.4463243 L 6.8205112,6.820498"
       style="stroke-width:0.264583;fill:#ffffff;fill-opacity:1" /></g></svg>
