<?xml version="1.0" encoding="UTF-8" standalone="no"?>
<!-- Created with Inkscape (http://www.inkscape.org/) -->

<svg
   width="85"
   height="15"
   viewBox="0 0 22.489583 3.96875"
   version="1.1"
   id="svg1"
   xml:space="preserve"
   inkscape:version="1.3 (0e150ed6c4, 2023-07-21)"
   sodipodi:docname="G.F.system.svg"
   xmlns:inkscape="http://www.inkscape.org/namespaces/inkscape"
   xmlns:sodipodi="http://sodipodi.sourceforge.net/DTD/sodipodi-0.dtd"
   xmlns="http://www.w3.org/2000/svg"
   xmlns:svg="http://www.w3.org/2000/svg"><sodipodi:namedview
     id="namedview1"
     pagecolor="#000000"
     bordercolor="#000000"
     borderopacity="0.25"
     inkscape:showpageshadow="2"
     inkscape:pageopacity="0.0"
     inkscape:pagecheckerboard="true"
     inkscape:deskcolor="#d1d1d1"
     inkscape:document-units="mm"
     inkscape:zoom="7.6599265"
     inkscape:cx="36.945524"
     inkscape:cy="14.556275"
     inkscape:window-width="1920"
     inkscape:window-height="1022"
     inkscape:window-x="0"
     inkscape:window-y="0"
     inkscape:window-maximized="1"
     inkscape:current-layer="layer1" /><defs
     id="defs1" /><g
     inkscape:label="Layer 1"
     inkscape:groupmode="layer"
     id="layer1"><g
       id="text1"
       style="font-size:3.175px;line-height:0;white-space:pre;inline-size:19.8257;fill:#ffffff;stroke-width:0.264583;fill-opacity:0.627451"
       inkscape:label="G.F.system"
       transform="translate(0.02387696,1.4253634)"
       aria-label="G.F.system"><path
         style="font-family:Audiowide;-inkscape-font-specification:Audiowide;baseline-shift:baseline;fill:#ffffff;fill-opacity:0.627451"
         d="m 6.9492431,0.59466836 q 0,0.0434082 -0.015503,0.0806152 -0.015503,0.037207 -0.043408,0.0651123 -0.026355,0.026355 -0.063562,0.0418579 -0.037207,0.0155029 -0.080615,0.0155029 H 5.29198 q -0.055811,0 -0.1209229,-0.0124023 Q 5.1074951,0.77140175 5.0439331,0.74349648 4.9819214,0.71559121 4.9245605,0.672183 4.8671997,0.62722451 4.8222412,0.56521279 4.778833,0.50165078 4.752478,0.41948525 4.726123,0.33576943 4.726123,0.23189981 v -1.09140624 q 0,-0.0558105 0.012402,-0.11937255 0.013953,-0.0651123 0.041858,-0.12712402 0.027905,-0.063562 0.072864,-0.1209229 0.044958,-0.057361 0.1069702,-0.100769 0.063562,-0.044958 0.1457275,-0.071314 0.082166,-0.026355 0.1860352,-0.026355 h 1.6386596 v 0.4030762 H 5.29198 q -0.079065,0 -0.1209229,0.0418579 -0.041858,0.0418579 -0.041858,0.12402344 v 1.08830565 q 0,0.0775146 0.041858,0.12092285 0.043408,0.0418579 0.1209229,0.0418579 h 1.254187 v -0.5053955 H 5.4733642 v -0.40617676 h 1.2727906 q 0.043408,0 0.080615,0.0170532 0.037207,0.0155029 0.063562,0.0434082 0.027905,0.0279053 0.043408,0.0651123 0.015503,0.0356567 0.015503,0.0775147 z m 0.7115844,0 q 0,0.0418579 -0.017053,0.0790649 -0.015503,0.0356567 -0.043408,0.063562 -0.026355,0.026355 -0.063562,0.0418579 -0.035657,0.0155029 -0.075964,0.0155029 -0.041858,0 -0.079065,-0.0155029 -0.035657,-0.0155029 -0.063562,-0.0418579 -0.026355,-0.0279053 -0.041858,-0.063562 -0.015503,-0.037207 -0.015503,-0.0790649 0,-0.0403076 0.015503,-0.0759644 0.015503,-0.037207 0.041858,-0.063562 0.027905,-0.0279053 0.063562,-0.0434082 0.037207,-0.0170532 0.079065,-0.0170532 0.040308,0 0.075964,0.0170532 0.037207,0.0155029 0.063562,0.0434082 0.027905,0.026355 0.043408,0.063562 0.017053,0.0356567 0.017053,0.0759644 z M 9.8591429,-0.11071493 H 8.5848021 V -0.51689169 H 9.8591429 Z M 10.038977,-1.0222872 H 8.4235717 V 0.79775673 H 8.0204955 V -1.222275 q 0,-0.041858 0.015503,-0.079065 0.015503,-0.037207 0.041858,-0.065112 0.027905,-0.027905 0.065112,-0.043408 0.037207,-0.015503 0.080615,-0.015503 h 1.8153931 z m 0.517798,1.61695556 q 0,0.0418579 -0.01705,0.0790649 -0.0155,0.0356567 -0.04341,0.063562 -0.02636,0.026355 -0.06356,0.0418579 -0.03566,0.0155029 -0.07596,0.0155029 -0.04186,0 -0.07906,-0.0155029 -0.03566,-0.0155029 -0.06356,-0.0418579 -0.02635,-0.0279053 -0.04186,-0.063562 -0.0155,-0.037207 -0.0155,-0.0790649 0,-0.0403076 0.0155,-0.0759644 0.0155,-0.037207 0.04186,-0.063562 0.02791,-0.0279053 0.06356,-0.0434082 0.03721,-0.0170532 0.07906,-0.0170532 0.04031,0 0.07596,0.0170532 0.03721,0.0155029 0.06356,0.0434082 0.0279,0.026355 0.04341,0.063562 0.01705,0.0356567 0.01705,0.0759644 z"
         id="path3" /><path
         style="font-size:2.82222px;font-family:Audiowide;-inkscape-font-specification:Audiowide;fill:#ffffff;fill-opacity:0.627451"
         d="m 12.290518,0.29477317 q 0,0.0923285 -0.02343,0.1667425 -0.02343,0.073036 -0.06201,0.12953549 -0.03858,0.0551215 -0.08957,0.0950846 -0.05099,0.038585 -0.107487,0.0633897 -0.05512,0.0248047 -0.112999,0.037207 -0.0565,0.0110243 -0.107487,0.0110243 H 10.817396 V 0.43946707 h 0.967382 q 0.07304,0 0.110243,-0.037207 0.03721,-0.037207 0.03721,-0.1074869 -0.0069,-0.14331586 -0.144694,-0.14331586 h -0.555349 q -0.118511,0 -0.201193,-0.0413411 -0.08268,-0.04134111 -0.135048,-0.10335278 -0.05099,-0.06201168 -0.07441,-0.13366961 -0.02205,-0.0716579 -0.02205,-0.1336696 0,-0.11988923 0.04272,-0.20119343 0.04272,-0.0826822 0.107486,-0.1336696 0.06477,-0.0509874 0.14056,-0.073036 0.07579,-0.0234266 0.141938,-0.0234266 h 0.880566 v 0.35828966 h -0.87781 q -0.02756,0 -0.0441,0.00689 -0.01516,0.005512 -0.02343,0.0165364 -0.0069,0.009646 -0.0083,0.0220486 -0.0014,0.0110243 -0.0014,0.0220486 0.0014,0.0220486 0.0083,0.0344509 0.0069,0.0124023 0.01654,0.0179145 0.01102,0.005512 0.02343,0.00689 0.01378,0 0.02618,0 h 0.555349 q 0.137804,0 0.234266,0.0496093 0.09646,0.0496093 0.155719,0.12540138 0.05926,0.074414 0.08544,0.16260838 0.02756,0.0881944 0.02756,0.16398642 z m 1.893423,0.64629943 q 0,0.0923285 -0.02343,0.1653645 -0.02343,0.074414 -0.06201,0.1295354 -0.03858,0.0565 -0.08957,0.095085 -0.05099,0.039963 -0.107487,0.064768 -0.05512,0.024805 -0.111621,0.035829 -0.0565,0.012402 -0.107487,0.012402 H 13.036036 V 1.0857665 h 0.646299 q 0.07166,0 0.107487,-0.037207 0.03583,-0.037207 0.03583,-0.1074869 v -1.63297403 h 0.35829 z M 13.682335,0.79775673 h -0.646299 q -0.07717,0 -0.165365,-0.0261827 -0.08682,-0.0261827 -0.162608,-0.0854383 -0.07579,-0.0606336 -0.125401,-0.1557182 -0.04961,-0.0964626 -0.04961,-0.23564435 v -0.9866746 h 0.35829 v 0.9866746 q 0,0.0702799 0.03721,0.1074869 0.03721,0.037207 0.110243,0.037207 h 0.643543 z m 2.283408,-0.50298356 q 0,0.0923285 -0.02343,0.1667425 -0.02343,0.073036 -0.06201,0.12953549 -0.03858,0.0551215 -0.08957,0.0950846 -0.05099,0.038585 -0.107487,0.0633897 -0.05512,0.0248047 -0.112999,0.037207 -0.0565,0.0110243 -0.107487,0.0110243 H 14.492621 V 0.43946707 h 0.967382 q 0.07304,0 0.110243,-0.037207 0.03721,-0.037207 0.03721,-0.1074869 -0.0069,-0.14331586 -0.144694,-0.14331586 H 14.90741 q -0.118511,0 -0.201193,-0.0413411 -0.08268,-0.04134111 -0.135048,-0.10335278 -0.05099,-0.06201168 -0.07441,-0.13366961 -0.02205,-0.0716579 -0.02205,-0.1336696 0,-0.11988923 0.04272,-0.20119343 0.04272,-0.0826822 0.107487,-0.1336696 0.06477,-0.0509874 0.14056,-0.073036 0.07579,-0.0234266 0.141937,-0.0234266 h 0.880566 v 0.35828966 h -0.87781 q -0.02756,0 -0.0441,0.00689 -0.01516,0.005512 -0.02343,0.0165364 -0.0069,0.009646 -0.0083,0.0220486 -0.0014,0.0110243 -0.0014,0.0220486 0.0014,0.0220486 0.0083,0.0344509 0.0069,0.0124023 0.01654,0.0179145 0.01102,0.005512 0.02343,0.00689 0.01378,0 0.02618,0 h 0.555349 q 0.137804,0 0.234267,0.0496093 0.09646,0.0496093 0.155718,0.12540138 0.05926,0.074414 0.08544,0.16260838 0.02756,0.0881944 0.02756,0.16398642 z m 1.580609,-0.62838494 h -0.625629 v 1.1313685 h -0.362424 v -1.1313685 h -0.465777 v -0.35828966 h 0.465777 V -1.1783485 h 0.362424 v 0.48644707 h 0.625629 z m 1.832789,0.13504764 q 0,0.074414 -0.02618,0.16123035 -0.02618,0.0854383 -0.08544,0.15985231 -0.05788,0.073036 -0.152962,0.1226453 -0.09371,0.0496093 -0.228754,0.0496093 h -0.6463 v -0.34037518 h 0.6463 q 0.07304,0 0.112999,-0.04409718 0.03996,-0.04547523 0.03996,-0.11162101 0,-0.0702799 -0.04548,-0.11024298 -0.0441,-0.0399631 -0.107486,-0.0399631 h -0.6463 q -0.07304,0 -0.112999,0.0454752 -0.03996,0.0440972 -0.03996,0.11024298 v 0.50022748 q 0,0.0716579 0.0441,0.11162101 0.04547,0.0399631 0.111621,0.0399631 h 0.643544 v 0.34175321 h -0.6463 q -0.07441,0 -0.16123,-0.0261827 -0.08544,-0.0261827 -0.159852,-0.0840603 -0.07304,-0.0592556 -0.122646,-0.15296212 -0.04961,-0.0950846 -0.04961,-0.23013221 v -0.50298356 q 0,-0.074414 0.02618,-0.15985231 0.02618,-0.0868163 0.08406,-0.15985231 0.05926,-0.074414 0.152962,-0.12402334 0.09509,-0.0496093 0.230132,-0.0496093 h 0.6463 q 0.07441,0 0.159852,0.0261827 0.08682,0.0261827 0.159852,0.0854383 0.07441,0.0578776 0.124024,0.15296212 0.04961,0.0937065 0.04961,0.22875417 z m 1.570962,0.99632086 h -0.358289 v -0.98805264 q 0,-0.0702799 -0.03721,-0.10610886 -0.03721,-0.037207 -0.110243,-0.037207 h -0.465777 v 1.1313685 h -0.358289 v -1.31189137 q 0,-0.037207 0.01378,-0.0689019 0.01378,-0.0330729 0.03859,-0.0564995 0.02481,-0.0248047 0.05788,-0.038585 0.03307,-0.0137804 0.07028,-0.0137804 h 0.6463 q 0.07441,0 0.159852,0.0261827 0.08544,0.0261827 0.162609,0.0840603 v -0.11024297 h 0.485069 q 0.05099,0 0.107487,0.0124023 0.0565,0.0110243 0.111621,0.035829 0.0565,0.0248047 0.107486,0.0647677 0.05099,0.038585 0.08957,0.0950846 0.03859,0.0551215 0.06201,0.12815746 0.02343,0.073036 0.02343,0.16536445 v 0.98805264 h -0.358289 v -0.98805264 q 0,-0.0702799 -0.03583,-0.10610886 -0.03445,-0.037207 -0.107487,-0.037207 h -0.322461 q 0.01791,0.0661458 0.01791,0.14331586 z"
         id="path4" /></g><g
       id="g2"
       inkscape:label="line"
       style="display:inline"><path
         style="fill:#ffffff;fill-opacity:1;stroke-width:0.264583"
         d="m 22.375,2.375 v 1.5 H 16.75 l 0.975,-1.5 z"
         id="path1"
         sodipodi:nodetypes="ccccc"
         inkscape:label="white-large" /><path
         style="display:inline;fill:#ffffff;fill-opacity:1;stroke-width:0.264583"
         d="m 17.125,2.375 -1,1.5002303 h -0.75 l 1,-1.5 z"
         id="path1-1"
         sodipodi:nodetypes="ccccc"
         inkscape:label="white-small" /><g
         id="g1"
         inkscape:label="color"
         style="display:inline;fill:#efb521;fill-opacity:1"><path
           style="display:inline;fill:#efb521;fill-opacity:1;stroke-width:0.264583"
           d="m 15.75,2.375 -1,1.5002303 H 14 l 1,-1.5 z"
           id="path1-1-9"
           sodipodi:nodetypes="ccccc"
           inkscape:label="color-1" /><path
           style="display:inline;fill:#efb521;fill-opacity:1;stroke-width:0.264583"
           d="m 14.375,2.375 -1,1.5002303 h -0.75 l 1,-1.5 z"
           id="path1-1-6"
           sodipodi:nodetypes="ccccc"
           inkscape:label="color-2" /><path
           style="display:inline;fill:#efb521;fill-opacity:1;stroke-width:0.264583"
           d="m 13,2.375 -1,1.5002303 h -0.75 l 1,-1.5 z"
           id="path1-1-6-0"
           sodipodi:nodetypes="ccccc"
           inkscape:label="color-3" /><path
           style="display:inline;fill:#efb521;fill-opacity:1;stroke-width:0.264583"
           d="m 11.625,2.375 -1,1.5002303 h -0.75 l 1,-1.5 z"
           id="path1-1-6-0-8"
           sodipodi:nodetypes="ccccc"
           inkscape:label="color-4" /><path
           style="display:inline;fill:#efb521;fill-opacity:1;stroke-width:0.264583"
           d="m 10.25,2.375 -1,1.5002303 H 8.5 l 1,-1.5 z"
           id="path1-1-6-0-8-6"
           sodipodi:nodetypes="ccccc"
           inkscape:label="color-5" /><path
           style="display:inline;fill:#efb521;fill-opacity:1;stroke-width:0.264583"
           d="m 8.875,2.375 -1,1.5002303 h -0.75 l 1,-1.5 z"
           id="path1-1-6-0-8-6-3"
           sodipodi:nodetypes="ccccc"
           inkscape:label="color-6" /><path
           style="display:inline;fill:#efb521;fill-opacity:1;stroke-width:0.264583"
           d="m 7.4999997,2.375 -1,1.5002303 H 5.75 l 0.9999997,-1.5 z"
           id="path1-1-6-7"
           sodipodi:nodetypes="ccccc"
           inkscape:label="color-7" /><path
           style="display:inline;fill:#efb521;fill-opacity:1;stroke-width:0.264583"
           d="M 6.1249997,2.375 5.125,3.8752303 h -0.75 l 1,-1.5 z"
           id="path1-1-6-0-84"
           sodipodi:nodetypes="ccccc"
           inkscape:label="color-8" /><path
           style="display:inline;fill:#efb521;fill-opacity:1;stroke-width:0.264583"
           d="m 4.75,2.375 -1,1.5002303 H 3 l 1,-1.5 z"
           id="path1-1-6-0-8-5"
           sodipodi:nodetypes="ccccc"
           inkscape:label="color-9" /><path
           style="display:inline;fill:#efb521;fill-opacity:1;stroke-width:0.264583"
           d="m 3.375,2.375 -1,1.5002303 h -0.75 l 1,-1.5 z"
           id="path1-1-6-0-8-6-0"
           sodipodi:nodetypes="ccccc"
           inkscape:label="color-10" /><path
           style="display:inline;fill:#efb521;fill-opacity:1;stroke-width:0.264583"
           d="M 2,2.375 1,3.8752303 H 0.25 l 1,-1.5 z"
           id="path1-1-6-0-8-6-3-3"
           sodipodi:nodetypes="ccccc"
           inkscape:label="color-11" /></g></g></g></svg>
